<svg width="282" height="437" viewBox="0 0 282 437" fill="none" xmlns="http://www.w3.org/2000/svg">
<g filter="url(#filter0_d_142_40)">
<path d="M120 231C120 258.614 97.6142 281 70 281C42.3858 281 20 258.614 20 231C20 203.386 42.3858 181 70 181C97.6142 181 120 203.386 120 231Z" fill="black" fill-opacity="0.27"/>
<path d="M144 70C144 108.66 112.66 140 74 140C35.3401 140 4 108.66 4 70C4 31.3401 35.3401 0 74 0C112.66 0 144 31.3401 144 70Z" fill="black" fill-opacity="0.54"/>
<path d="M314 161.5C314 198.227 284.227 228 247.5 228C210.773 228 181 198.227 181 161.5C181 124.773 210.773 95 247.5 95C284.227 95 314 124.773 314 161.5Z" fill="black" fill-opacity="0.54"/>
<path d="M347 281C347 362.738 280.738 429 199 429C117.262 429 51 362.738 51 281C51 199.262 117.262 133 199 133C280.738 133 347 199.262 347 281Z" fill="#51AC77"/>
</g>
<defs>
<filter id="filter0_d_142_40" x="0" y="0" width="351" height="437" filterUnits="userSpaceOnUse" color-interpolation-filters="sRGB">
<feFlood flood-opacity="0" result="BackgroundImageFix"/>
<feColorMatrix in="SourceAlpha" type="matrix" values="0 0 0 0 0 0 0 0 0 0 0 0 0 0 0 0 0 0 127 0" result="hardAlpha"/>
<feOffset dy="4"/>
<feGaussianBlur stdDeviation="2"/>
<feComposite in2="hardAlpha" operator="out"/>
<feColorMatrix type="matrix" values="0 0 0 0 0 0 0 0 0 0 0 0 0 0 0 0 0 0 0.25 0"/>
<feBlend mode="normal" in2="BackgroundImageFix" result="effect1_dropShadow_142_40"/>
<feBlend mode="normal" in="SourceGraphic" in2="effect1_dropShadow_142_40" result="shape"/>
</filter>
</defs>
</svg>
